<svg width="236" height="48" viewBox="0 0 236 48" fill="none" xmlns="http://www.w3.org/2000/svg">
<rect width="236" height="48" rx="5" fill="#7D67EE"/>
<path d="M101.705 26.588C101.502 27.2707 101.182 27.8413 100.745 28.3C100.308 28.7587 99.7904 29.1 99.1931 29.324C98.5957 29.548 97.9397 29.66 97.2251 29.66C96.1797 29.66 95.2731 29.4413 94.5051 29.004C93.7477 28.5667 93.1611 27.9427 92.7451 27.132C92.3397 26.3213 92.1371 25.3507 92.1371 24.22C92.1371 23.0893 92.3397 22.1187 92.7451 21.308C93.1611 20.4973 93.7477 19.8733 94.5051 19.436C95.2731 18.9987 96.1691 18.78 97.1931 18.78C97.9184 18.78 98.5744 18.8813 99.1611 19.084C99.7477 19.276 100.244 19.5747 100.649 19.98C101.065 20.3853 101.369 20.8973 101.561 21.516L99.5611 22.364C99.3797 21.724 99.1024 21.2707 98.7291 21.004C98.3557 20.7267 97.8757 20.588 97.2891 20.588C96.7131 20.588 96.2064 20.7267 95.7691 21.004C95.3424 21.2813 95.0117 21.692 94.7771 22.236C94.5424 22.7693 94.4251 23.4307 94.4251 24.22C94.4251 24.9987 94.5317 25.66 94.7451 26.204C94.9691 26.748 95.2944 27.1587 95.7211 27.436C96.1477 27.7133 96.6704 27.852 97.2891 27.852C97.8651 27.852 98.3611 27.6973 98.7771 27.388C99.2037 27.0787 99.5024 26.6093 99.6731 25.98L101.705 26.588ZM107.923 24.396C107.923 23.9373 107.79 23.58 107.523 23.324C107.267 23.068 106.926 22.94 106.499 22.94C106.104 22.94 105.758 23.0413 105.459 23.244C105.16 23.4467 104.942 23.7827 104.803 24.252L102.931 23.676C103.112 22.972 103.507 22.4067 104.115 21.98C104.734 21.5533 105.56 21.34 106.595 21.34C107.299 21.34 107.912 21.452 108.435 21.676C108.958 21.8893 109.363 22.2147 109.651 22.652C109.95 23.0893 110.099 23.6387 110.099 24.3V27.548C110.099 27.9533 110.291 28.156 110.675 28.156C110.856 28.156 111.027 28.1293 111.187 28.076L111.059 29.436C110.782 29.5747 110.435 29.644 110.019 29.644C109.646 29.644 109.31 29.58 109.011 29.452C108.712 29.324 108.478 29.132 108.307 28.876C108.136 28.6093 108.051 28.2787 108.051 27.884V27.82L108.435 27.756C108.371 28.1613 108.195 28.508 107.907 28.796C107.619 29.0733 107.267 29.2867 106.851 29.436C106.446 29.5853 106.024 29.66 105.587 29.66C105.043 29.66 104.574 29.58 104.179 29.42C103.784 29.2493 103.48 29.004 103.267 28.684C103.054 28.364 102.947 27.9693 102.947 27.5C102.947 26.9027 103.139 26.4173 103.523 26.044C103.907 25.66 104.456 25.3987 105.171 25.26L108.179 24.652L108.163 26.012L106.243 26.396C105.88 26.4707 105.603 26.572 105.411 26.7C105.23 26.8173 105.139 27.0147 105.139 27.292C105.139 27.5587 105.235 27.7613 105.427 27.9C105.63 28.0387 105.87 28.108 106.147 28.108C106.371 28.108 106.59 28.0813 106.803 28.028C107.016 27.9747 107.208 27.8893 107.379 27.772C107.55 27.6547 107.683 27.4947 107.779 27.292C107.875 27.0893 107.923 26.844 107.923 26.556V24.396ZM112.55 29.5V21.5H114.518L114.646 23.9L114.374 23.644C114.502 23.1213 114.705 22.6893 114.982 22.348C115.26 22.0067 115.596 21.756 115.99 21.596C116.396 21.4253 116.838 21.34 117.318 21.34C117.873 21.34 118.364 21.4467 118.79 21.66C119.228 21.8733 119.569 22.1987 119.814 22.636C120.07 23.0627 120.198 23.6013 120.198 24.252V29.5H118.006V24.876C118.006 24.1933 117.873 23.724 117.606 23.468C117.34 23.2013 116.993 23.068 116.566 23.068C116.268 23.068 115.974 23.1427 115.686 23.292C115.409 23.4307 115.18 23.66 114.998 23.98C114.828 24.3 114.742 24.7267 114.742 25.26V29.5H112.55ZM126.089 21.34C126.803 21.34 127.406 21.4467 127.897 21.66C128.398 21.8627 128.798 22.1453 129.097 22.508C129.406 22.86 129.625 23.2547 129.753 23.692L127.705 24.428C127.598 23.948 127.417 23.5853 127.161 23.34C126.905 23.0947 126.558 22.972 126.121 22.972C125.715 22.972 125.369 23.068 125.081 23.26C124.793 23.4413 124.574 23.724 124.425 24.108C124.275 24.4813 124.201 24.9507 124.201 25.516C124.201 26.0813 124.275 26.5507 124.425 26.924C124.585 27.2973 124.809 27.5747 125.097 27.756C125.395 27.9373 125.742 28.028 126.137 28.028C126.457 28.028 126.729 27.9747 126.953 27.868C127.177 27.7507 127.358 27.5853 127.497 27.372C127.646 27.1587 127.747 26.9027 127.801 26.604L129.785 27.244C129.667 27.724 129.449 28.1453 129.129 28.508C128.809 28.8707 128.398 29.1533 127.897 29.356C127.395 29.5587 126.814 29.66 126.153 29.66C125.331 29.66 124.606 29.4947 123.977 29.164C123.347 28.8333 122.862 28.3587 122.521 27.74C122.179 27.1213 122.009 26.3747 122.009 25.5C122.009 24.6253 122.179 23.8787 122.521 23.26C122.862 22.6413 123.342 22.1667 123.961 21.836C124.579 21.5053 125.289 21.34 126.089 21.34ZM135.2 29.66C134.357 29.66 133.621 29.4947 132.992 29.164C132.373 28.8333 131.893 28.3587 131.552 27.74C131.211 27.1213 131.04 26.3747 131.04 25.5C131.04 24.6253 131.211 23.8787 131.552 23.26C131.893 22.6413 132.368 22.1667 132.976 21.836C133.595 21.5053 134.299 21.34 135.088 21.34C135.899 21.34 136.587 21.5053 137.152 21.836C137.717 22.156 138.149 22.5987 138.448 23.164C138.747 23.7187 138.896 24.3533 138.896 25.068C138.896 25.2813 138.891 25.484 138.88 25.676C138.869 25.868 138.853 26.0387 138.832 26.188H132.448V24.668H137.872L136.816 25.052C136.816 24.38 136.661 23.8627 136.352 23.5C136.053 23.1373 135.627 22.956 135.072 22.956C134.667 22.956 134.315 23.052 134.016 23.244C133.728 23.436 133.509 23.724 133.36 24.108C133.211 24.4813 133.136 24.956 133.136 25.532C133.136 26.0973 133.216 26.5667 133.376 26.94C133.547 27.3027 133.781 27.5747 134.08 27.756C134.389 27.9373 134.757 28.028 135.184 28.028C135.653 28.028 136.032 27.9373 136.32 27.756C136.608 27.5747 136.832 27.324 136.992 27.004L138.736 27.676C138.565 28.092 138.304 28.4493 137.952 28.748C137.611 29.0467 137.2 29.276 136.72 29.436C136.251 29.5853 135.744 29.66 135.2 29.66ZM142.914 17.996V27.036C142.914 27.4093 142.978 27.6707 143.106 27.82C143.234 27.9693 143.447 28.044 143.746 28.044C143.927 28.044 144.076 28.0333 144.194 28.012C144.311 27.98 144.46 27.9373 144.642 27.884L144.45 29.324C144.268 29.4307 144.039 29.5107 143.762 29.564C143.495 29.628 143.228 29.66 142.962 29.66C142.183 29.66 141.612 29.4733 141.25 29.1C140.898 28.716 140.722 28.108 140.722 27.276V17.996H142.914Z" fill="#F8F8F8"/>
</svg>
