<svg width="228" height="59" viewBox="0 0 228 59" fill="none" xmlns="http://www.w3.org/2000/svg">
<rect x="0.5" width="227" height="59" rx="5" fill="#E2E6FE"/>
<path d="M67.5 26.5V24.5C67.5 23.9696 67.2893 23.4609 66.9142 23.0858C66.5391 22.7107 66.0304 22.5 65.5 22.5H55.5C54.9696 22.5 54.4609 22.7107 54.0858 23.0858C53.7107 23.4609 53.5 23.9696 53.5 24.5V30.5C53.5 31.0304 53.7107 31.5391 54.0858 31.9142C54.4609 32.2893 54.9696 32.5 55.5 32.5H57.5M59.5 36.5H69.5C70.0304 36.5 70.5391 36.2893 70.9142 35.9142C71.2893 35.5391 71.5 35.0304 71.5 34.5V28.5C71.5 27.9696 71.2893 27.4609 70.9142 27.0858C70.5391 26.7107 70.0304 26.5 69.5 26.5H59.5C58.9696 26.5 58.4609 26.7107 58.0858 27.0858C57.7107 27.4609 57.5 27.9696 57.5 28.5V34.5C57.5 35.0304 57.7107 35.5391 58.0858 35.9142C58.4609 36.2893 58.9696 36.5 59.5 36.5ZM66.5 31.5C66.5 31.8956 66.3827 32.2822 66.1629 32.6111C65.9432 32.94 65.6308 33.1964 65.2654 33.3478C64.8999 33.4991 64.4978 33.5387 64.1098 33.4616C63.7219 33.3844 63.3655 33.1939 63.0858 32.9142C62.8061 32.6345 62.6156 32.2781 62.5384 31.8902C62.4613 31.5022 62.5009 31.1001 62.6522 30.7346C62.8036 30.3692 63.06 30.0568 63.3889 29.8371C63.7178 29.6173 64.1044 29.5 64.5 29.5C65.0304 29.5 65.5391 29.7107 65.9142 30.0858C66.2893 30.4609 66.5 30.9696 66.5 31.5Z" stroke="#7D67EE" stroke-width="2" stroke-linecap="round" stroke-linejoin="round"/>
<path d="M93.9528 32.2C93.7395 32.84 93.4195 33.384 92.9928 33.832C92.5661 34.2693 92.0648 34.6 91.4888 34.824C90.9128 35.048 90.2781 35.16 89.5848 35.16C88.5715 35.16 87.6915 34.9413 86.9448 34.504C86.1981 34.0667 85.6221 33.4427 85.2168 32.632C84.8115 31.8213 84.6088 30.8507 84.6088 29.72C84.6088 28.5893 84.8115 27.6187 85.2168 26.808C85.6221 25.9973 86.1981 25.3733 86.9448 24.936C87.6915 24.4987 88.5661 24.28 89.5688 24.28C90.2621 24.28 90.8861 24.376 91.4408 24.568C92.0061 24.76 92.4861 25.048 92.8808 25.432C93.2755 25.816 93.5795 26.296 93.7928 26.872L92.1768 27.592C91.9635 26.9627 91.6541 26.504 91.2488 26.216C90.8435 25.9173 90.3155 25.768 89.6648 25.768C89.0141 25.768 88.4435 25.9227 87.9528 26.232C87.4621 26.5413 87.0781 26.9893 86.8008 27.576C86.5341 28.1627 86.4008 28.8773 86.4008 29.72C86.4008 30.552 86.5288 31.2667 86.7848 31.864C87.0408 32.4507 87.4088 32.8987 87.8888 33.208C88.3688 33.5173 88.9448 33.672 89.6168 33.672C90.2675 33.672 90.8275 33.5067 91.2968 33.176C91.7768 32.8347 92.1181 32.328 92.3208 31.656L93.9528 32.2ZM95.8983 35V23.4H97.6103V28.28C97.877 27.7787 98.2343 27.416 98.6823 27.192C99.141 26.9573 99.6476 26.84 100.202 26.84C100.768 26.84 101.274 26.952 101.722 27.176C102.181 27.3893 102.544 27.7147 102.81 28.152C103.077 28.5893 103.21 29.144 103.21 29.816V35H101.498V30.36C101.498 29.5707 101.333 29.0213 101.002 28.712C100.682 28.4027 100.277 28.248 99.7863 28.248C99.445 28.248 99.1036 28.3333 98.7623 28.504C98.4316 28.664 98.1543 28.9307 97.9303 29.304C97.717 29.6667 97.6103 30.1573 97.6103 30.776V35H95.8983ZM109.277 26.84C110.055 26.84 110.743 27.0053 111.341 27.336C111.938 27.6667 112.402 28.1467 112.733 28.776C113.074 29.3947 113.245 30.136 113.245 31C113.245 31.864 113.074 32.6107 112.733 33.24C112.402 33.8587 111.938 34.3333 111.341 34.664C110.743 34.9947 110.055 35.16 109.277 35.16C108.498 35.16 107.81 34.9947 107.213 34.664C106.615 34.3333 106.146 33.8587 105.805 33.24C105.463 32.6107 105.293 31.864 105.293 31C105.293 30.136 105.463 29.3947 105.805 28.776C106.146 28.1467 106.615 27.6667 107.213 27.336C107.81 27.0053 108.498 26.84 109.277 26.84ZM109.277 28.184C108.797 28.184 108.386 28.296 108.045 28.52C107.714 28.7333 107.458 29.048 107.277 29.464C107.095 29.88 107.005 30.392 107.005 31C107.005 31.5973 107.095 32.1093 107.277 32.536C107.458 32.952 107.714 33.272 108.045 33.496C108.386 33.7093 108.797 33.816 109.277 33.816C109.757 33.816 110.162 33.7093 110.493 33.496C110.823 33.272 111.079 32.952 111.261 32.536C111.442 32.1093 111.533 31.5973 111.533 31C111.533 30.392 111.442 29.88 111.261 29.464C111.079 29.048 110.823 28.7333 110.493 28.52C110.162 28.296 109.757 28.184 109.277 28.184ZM118.87 26.84C119.649 26.84 120.337 27.0053 120.934 27.336C121.532 27.6667 121.996 28.1467 122.326 28.776C122.668 29.3947 122.838 30.136 122.838 31C122.838 31.864 122.668 32.6107 122.326 33.24C121.996 33.8587 121.532 34.3333 120.934 34.664C120.337 34.9947 119.649 35.16 118.87 35.16C118.092 35.16 117.404 34.9947 116.806 34.664C116.209 34.3333 115.74 33.8587 115.398 33.24C115.057 32.6107 114.886 31.864 114.886 31C114.886 30.136 115.057 29.3947 115.398 28.776C115.74 28.1467 116.209 27.6667 116.806 27.336C117.404 27.0053 118.092 26.84 118.87 26.84ZM118.87 28.184C118.39 28.184 117.98 28.296 117.638 28.52C117.308 28.7333 117.052 29.048 116.87 29.464C116.689 29.88 116.598 30.392 116.598 31C116.598 31.5973 116.689 32.1093 116.87 32.536C117.052 32.952 117.308 33.272 117.638 33.496C117.98 33.7093 118.39 33.816 118.87 33.816C119.35 33.816 119.756 33.7093 120.086 33.496C120.417 33.272 120.673 32.952 120.854 32.536C121.036 32.1093 121.126 31.5973 121.126 31C121.126 30.392 121.036 29.88 120.854 29.464C120.673 29.048 120.417 28.7333 120.086 28.52C119.756 28.296 119.35 28.184 118.87 28.184ZM128.032 35.16C127.232 35.16 126.501 35.0053 125.84 34.696C125.179 34.3867 124.656 33.9493 124.272 33.384L125.456 32.36C125.691 32.7973 126.027 33.1493 126.464 33.416C126.912 33.672 127.445 33.8 128.064 33.8C128.555 33.8 128.944 33.7147 129.232 33.544C129.52 33.3733 129.664 33.1333 129.664 32.824C129.664 32.6213 129.595 32.4453 129.456 32.296C129.328 32.136 129.077 32.0133 128.704 31.928L127.024 31.576C126.171 31.4053 125.563 31.1333 125.2 30.76C124.837 30.376 124.656 29.8907 124.656 29.304C124.656 28.8667 124.784 28.4613 125.04 28.088C125.296 27.7147 125.669 27.416 126.16 27.192C126.661 26.9573 127.259 26.84 127.952 26.84C128.752 26.84 129.435 26.984 130 27.272C130.565 27.5493 130.997 27.9493 131.296 28.472L130.112 29.464C129.909 29.0373 129.611 28.7227 129.216 28.52C128.821 28.3067 128.411 28.2 127.984 28.2C127.643 28.2 127.349 28.2427 127.104 28.328C126.859 28.4133 126.672 28.5307 126.544 28.68C126.416 28.8293 126.352 29.0053 126.352 29.208C126.352 29.4213 126.432 29.608 126.592 29.768C126.752 29.928 127.04 30.0507 127.456 30.136L129.28 30.52C130.048 30.6693 130.587 30.9253 130.896 31.288C131.216 31.64 131.376 32.072 131.376 32.584C131.376 33.096 131.243 33.5493 130.976 33.944C130.709 34.328 130.325 34.6267 129.824 34.84C129.323 35.0533 128.725 35.16 128.032 35.16ZM136.965 35.16C136.165 35.16 135.461 34.9947 134.853 34.664C134.245 34.3333 133.771 33.8587 133.429 33.24C133.099 32.6107 132.933 31.864 132.933 31C132.933 30.136 133.099 29.3947 133.429 28.776C133.771 28.1467 134.24 27.6667 134.837 27.336C135.435 27.0053 136.112 26.84 136.869 26.84C137.648 26.84 138.309 27 138.853 27.32C139.397 27.64 139.813 28.0773 140.101 28.632C140.389 29.1867 140.533 29.816 140.533 30.52C140.533 30.712 140.528 30.8933 140.517 31.064C140.507 31.2347 140.491 31.384 140.469 31.512H134.037V30.2H139.717L138.869 30.456C138.869 29.7307 138.688 29.176 138.325 28.792C137.963 28.3973 137.467 28.2 136.837 28.2C136.379 28.2 135.979 28.3067 135.637 28.52C135.296 28.7333 135.035 29.0533 134.853 29.48C134.672 29.896 134.581 30.408 134.581 31.016C134.581 31.6133 134.677 32.12 134.869 32.536C135.061 32.952 135.333 33.2667 135.685 33.48C136.037 33.6933 136.453 33.8 136.933 33.8C137.467 33.8 137.899 33.6987 138.229 33.496C138.56 33.2933 138.821 33.0107 139.013 32.648L140.373 33.288C140.181 33.672 139.92 34.008 139.589 34.296C139.269 34.5733 138.885 34.7867 138.437 34.936C137.989 35.0853 137.499 35.16 136.965 35.16ZM147.898 38.36V27H149.418L149.546 29.24L149.322 28.968C149.45 28.552 149.648 28.184 149.914 27.864C150.181 27.544 150.512 27.2933 150.906 27.112C151.312 26.9307 151.754 26.84 152.234 26.84C152.885 26.84 153.477 27.0053 154.01 27.336C154.544 27.6667 154.965 28.1413 155.274 28.76C155.584 29.368 155.738 30.1093 155.738 30.984C155.738 31.8587 155.578 32.6107 155.258 33.24C154.949 33.8587 154.522 34.3333 153.978 34.664C153.445 34.9947 152.848 35.16 152.186 35.16C151.504 35.16 150.922 34.984 150.442 34.632C149.962 34.2693 149.621 33.8107 149.418 33.256L149.61 32.984V38.36H147.898ZM151.818 33.768C152.512 33.768 153.05 33.5227 153.434 33.032C153.829 32.5413 154.026 31.864 154.026 31C154.026 30.136 153.834 29.4587 153.45 28.968C153.066 28.4667 152.533 28.216 151.85 28.216C151.402 28.216 151.008 28.3333 150.666 28.568C150.336 28.792 150.074 29.112 149.882 29.528C149.701 29.9333 149.61 30.424 149.61 31C149.61 31.5653 149.701 32.056 149.882 32.472C150.064 32.888 150.32 33.208 150.65 33.432C150.981 33.656 151.37 33.768 151.818 33.768ZM157.93 35V23.4H159.642V28.28C159.908 27.7787 160.266 27.416 160.714 27.192C161.172 26.9573 161.679 26.84 162.234 26.84C162.799 26.84 163.306 26.952 163.754 27.176C164.212 27.3893 164.575 27.7147 164.842 28.152C165.108 28.5893 165.242 29.144 165.242 29.816V35H163.53V30.36C163.53 29.5707 163.364 29.0213 163.034 28.712C162.714 28.4027 162.308 28.248 161.818 28.248C161.476 28.248 161.135 28.3333 160.794 28.504C160.463 28.664 160.186 28.9307 159.962 29.304C159.748 29.6667 159.642 30.1573 159.642 30.776V35H157.93ZM171.308 26.84C172.086 26.84 172.774 27.0053 173.372 27.336C173.969 27.6667 174.433 28.1467 174.764 28.776C175.105 29.3947 175.276 30.136 175.276 31C175.276 31.864 175.105 32.6107 174.764 33.24C174.433 33.8587 173.969 34.3333 173.372 34.664C172.774 34.9947 172.086 35.16 171.308 35.16C170.529 35.16 169.841 34.9947 169.244 34.664C168.646 34.3333 168.177 33.8587 167.836 33.24C167.494 32.6107 167.324 31.864 167.324 31C167.324 30.136 167.494 29.3947 167.836 28.776C168.177 28.1467 168.646 27.6667 169.244 27.336C169.841 27.0053 170.529 26.84 171.308 26.84ZM171.308 28.184C170.828 28.184 170.417 28.296 170.076 28.52C169.745 28.7333 169.489 29.048 169.308 29.464C169.126 29.88 169.036 30.392 169.036 31C169.036 31.5973 169.126 32.1093 169.308 32.536C169.489 32.952 169.745 33.272 170.076 33.496C170.417 33.7093 170.828 33.816 171.308 33.816C171.788 33.816 172.193 33.7093 172.524 33.496C172.854 33.272 173.11 32.952 173.292 32.536C173.473 32.1093 173.564 31.5973 173.564 31C173.564 30.392 173.473 29.88 173.292 29.464C173.11 29.048 172.854 28.7333 172.524 28.52C172.193 28.296 171.788 28.184 171.308 28.184ZM179.656 24.648V32.6C179.656 32.9947 179.758 33.2827 179.96 33.464C180.174 33.6453 180.456 33.736 180.808 33.736C181.096 33.736 181.347 33.6933 181.56 33.608C181.774 33.512 181.971 33.384 182.152 33.224L182.536 34.472C182.291 34.6853 181.987 34.856 181.624 34.984C181.272 35.1013 180.878 35.16 180.44 35.16C179.982 35.16 179.56 35.0853 179.176 34.936C178.792 34.7867 178.494 34.5467 178.28 34.216C178.067 33.8747 177.955 33.432 177.944 32.888V25.128L179.656 24.648ZM182.408 27V28.344H176.408V27H182.408ZM187.573 26.84C188.352 26.84 189.04 27.0053 189.637 27.336C190.235 27.6667 190.699 28.1467 191.029 28.776C191.371 29.3947 191.541 30.136 191.541 31C191.541 31.864 191.371 32.6107 191.029 33.24C190.699 33.8587 190.235 34.3333 189.637 34.664C189.04 34.9947 188.352 35.16 187.573 35.16C186.795 35.16 186.107 34.9947 185.509 34.664C184.912 34.3333 184.443 33.8587 184.101 33.24C183.76 32.6107 183.589 31.864 183.589 31C183.589 30.136 183.76 29.3947 184.101 28.776C184.443 28.1467 184.912 27.6667 185.509 27.336C186.107 27.0053 186.795 26.84 187.573 26.84ZM187.573 28.184C187.093 28.184 186.683 28.296 186.341 28.52C186.011 28.7333 185.755 29.048 185.573 29.464C185.392 29.88 185.301 30.392 185.301 31C185.301 31.5973 185.392 32.1093 185.573 32.536C185.755 32.952 186.011 33.272 186.341 33.496C186.683 33.7093 187.093 33.816 187.573 33.816C188.053 33.816 188.459 33.7093 188.789 33.496C189.12 33.272 189.376 32.952 189.557 32.536C189.739 32.1093 189.829 31.5973 189.829 31C189.829 30.392 189.739 29.88 189.557 29.464C189.376 29.048 189.12 28.7333 188.789 28.52C188.459 28.296 188.053 28.184 187.573 28.184Z" fill="#7D67EE"/>
</svg>
