<svg width="228" height="95" viewBox="0 0 228 95" fill="none" xmlns="http://www.w3.org/2000/svg">
<rect x="0.5" y="0.5" width="227" height="94" rx="4.5" fill="#F5F5F7"/>
<rect x="0.5" y="0.5" width="227" height="94" rx="4.5" stroke="#7D67EE" stroke-dasharray="2 2"/>
<path fill-rule="evenodd" clip-rule="evenodd" d="M98 47.5C98 49.6217 98.8429 51.6566 100.343 53.1569C101.843 54.6571 103.878 55.5 106 55.5H112V61.5C112 62.0304 112.211 62.5391 112.586 62.9142C112.961 63.2893 113.47 63.5 114 63.5C114.53 63.5 115.039 63.2893 115.414 62.9142C115.789 62.5391 116 62.0304 116 61.5V55.5H122C124.122 55.5 126.157 54.6571 127.657 53.1569C129.157 51.6566 130 49.6217 130 47.5C130 45.3783 129.157 43.3434 127.657 41.8431C126.157 40.3429 124.122 39.5 122 39.5C122 37.3783 121.157 35.3434 119.657 33.8431C118.157 32.3429 116.122 31.5 114 31.5C111.878 31.5 109.843 32.3429 108.343 33.8431C106.843 35.3434 106 37.3783 106 39.5C103.878 39.5 101.843 40.3429 100.343 41.8431C98.8429 43.3434 98 45.3783 98 47.5ZM116 55.5H112V46.328L109.414 48.914C109.23 49.105 109.009 49.2574 108.765 49.3622C108.521 49.467 108.258 49.5222 107.993 49.5245C107.727 49.5268 107.464 49.4762 107.218 49.3756C106.972 49.2751 106.749 49.1266 106.561 48.9388C106.373 48.751 106.225 48.5277 106.124 48.2819C106.024 48.0361 105.973 47.7728 105.975 47.5072C105.978 47.2416 106.033 46.9792 106.138 46.7352C106.243 46.4912 106.395 46.2705 106.586 46.086L112.586 40.086C112.961 39.7111 113.47 39.5004 114 39.5004C114.53 39.5004 115.039 39.7111 115.414 40.086L121.414 46.086C121.605 46.2705 121.757 46.4912 121.862 46.7352C121.967 46.9792 122.022 47.2416 122.025 47.5072C122.027 47.7728 121.976 48.0361 121.876 48.2819C121.775 48.5277 121.627 48.751 121.439 48.9388C121.251 49.1266 121.028 49.2751 120.782 49.3756C120.536 49.4762 120.273 49.5268 120.007 49.5245C119.742 49.5222 119.479 49.467 119.235 49.3622C118.991 49.2574 118.77 49.105 118.586 48.914L116 46.328V55.5Z" fill="#E2E6FE"/>
</svg>
