<svg width="286" height="30" viewBox="0 0 286 30" fill="none" xmlns="http://www.w3.org/2000/svg">
<line x1="4.37114e-08" y1="16.5" x2="286" y2="16.5" stroke="#7D67EE"/>
<rect x="127" width="30" height="30" fill="#FEFEFA"/>
<path d="M137 9.8C137.973 9.8 138.833 10.0067 139.58 10.42C140.327 10.8333 140.907 11.4333 141.32 12.22C141.747 12.9933 141.96 13.92 141.96 15C141.96 16.08 141.747 17.0133 141.32 17.8C140.907 18.5733 140.327 19.1667 139.58 19.58C138.833 19.9933 137.973 20.2 137 20.2C136.027 20.2 135.167 19.9933 134.42 19.58C133.673 19.1667 133.087 18.5733 132.66 17.8C132.233 17.0133 132.02 16.08 132.02 15C132.02 13.92 132.233 12.9933 132.66 12.22C133.087 11.4333 133.673 10.8333 134.42 10.42C135.167 10.0067 136.027 9.8 137 9.8ZM137 11.48C136.4 11.48 135.887 11.62 135.46 11.9C135.047 12.1667 134.727 12.56 134.5 13.08C134.273 13.6 134.16 14.24 134.16 15C134.16 15.7467 134.273 16.3867 134.5 16.92C134.727 17.44 135.047 17.84 135.46 18.12C135.887 18.3867 136.4 18.52 137 18.52C137.6 18.52 138.107 18.3867 138.52 18.12C138.933 17.84 139.253 17.44 139.48 16.92C139.707 16.3867 139.82 15.7467 139.82 15C139.82 14.24 139.707 13.6 139.48 13.08C139.253 12.56 138.933 12.1667 138.52 11.9C138.107 11.62 137.6 11.48 137 11.48ZM144.652 20V10H146.472L146.672 11.8C146.939 11.1467 147.332 10.6533 147.852 10.32C148.386 9.97333 149.039 9.8 149.812 9.8C150.012 9.8 150.212 9.82 150.412 9.86C150.612 9.88667 150.779 9.93333 150.912 10L150.612 11.88C150.466 11.8267 150.299 11.7867 150.112 11.76C149.939 11.72 149.699 11.7 149.392 11.7C148.979 11.7 148.572 11.8133 148.172 12.04C147.772 12.2533 147.439 12.58 147.172 13.02C146.919 13.46 146.792 14.02 146.792 14.7V20H144.652Z" fill="#7D67EE"/>
</svg>
