<svg width="228" height="59" viewBox="0 0 228 59" fill="none" xmlns="http://www.w3.org/2000/svg">
<rect x="0.5" width="227" height="59" rx="5" fill="#E2E6FE"/>
<path fill-rule="evenodd" clip-rule="evenodd" d="M55.5 24.5C54.9696 24.5 54.4609 24.7107 54.0858 25.0858C53.7107 25.4609 53.5 25.9696 53.5 26.5V34.5C53.5 35.0304 53.7107 35.5391 54.0858 35.9142C54.4609 36.2893 54.9696 36.5 55.5 36.5H67.5C68.0304 36.5 68.5391 36.2893 68.9142 35.9142C69.2893 35.5391 69.5 35.0304 69.5 34.5V26.5C69.5 25.9696 69.2893 25.4609 68.9142 25.0858C68.5391 24.7107 68.0304 24.5 67.5 24.5H65.914C65.6488 24.4999 65.3945 24.3945 65.207 24.207L64.086 23.086C63.711 22.7109 63.2024 22.5001 62.672 22.5H60.328C59.7976 22.5001 59.289 22.7109 58.914 23.086L57.793 24.207C57.6055 24.3945 57.3512 24.4999 57.086 24.5H55.5ZM61.5 33.5C62.0933 33.5 62.6734 33.3241 63.1667 32.9944C63.6601 32.6648 64.0446 32.1962 64.2716 31.6481C64.4987 31.0999 64.5581 30.4967 64.4424 29.9147C64.3266 29.3328 64.0409 28.7982 63.6213 28.3787C63.2018 27.9591 62.6672 27.6734 62.0853 27.5576C61.5033 27.4419 60.9001 27.5013 60.3519 27.7284C59.8038 27.9554 59.3352 28.3399 59.0056 28.8333C58.6759 29.3266 58.5 29.9067 58.5 30.5C58.5 31.2956 58.8161 32.0587 59.3787 32.6213C59.9413 33.1839 60.7044 33.5 61.5 33.5Z" fill="#7D67EE"/>
<path d="M91.0568 24.44V25.912H87.4408V35H85.7288V25.912H82.1128V24.44H91.0568ZM95.9442 29.864C95.9442 29.3307 95.7949 28.92 95.4962 28.632C95.2082 28.3333 94.8082 28.184 94.2962 28.184C93.8162 28.184 93.4055 28.296 93.0642 28.52C92.7229 28.744 92.4722 29.1067 92.3122 29.608L90.8722 29C91.0749 28.3493 91.4695 27.8267 92.0562 27.432C92.6535 27.0373 93.4215 26.84 94.3602 26.84C95.0002 26.84 95.5655 26.9467 96.0562 27.16C96.5469 27.3627 96.9309 27.672 97.2082 28.088C97.4962 28.504 97.6402 29.0373 97.6402 29.688V33.256C97.6402 33.6507 97.8375 33.848 98.2322 33.848C98.4242 33.848 98.6109 33.8213 98.7922 33.768L98.6962 34.952C98.4509 35.0693 98.1415 35.128 97.7682 35.128C97.4269 35.128 97.1175 35.0693 96.8402 34.952C96.5735 34.824 96.3602 34.6373 96.2002 34.392C96.0509 34.136 95.9762 33.8213 95.9762 33.448V33.336L96.3282 33.32C96.2322 33.736 96.0349 34.0827 95.7362 34.36C95.4375 34.6267 95.0909 34.8293 94.6962 34.968C94.3015 35.096 93.9015 35.16 93.4962 35.16C92.9949 35.16 92.5415 35.08 92.1362 34.92C91.7415 34.76 91.4269 34.52 91.1922 34.2C90.9682 33.8693 90.8562 33.464 90.8562 32.984C90.8562 32.3867 91.0482 31.896 91.4322 31.512C91.8269 31.128 92.3815 30.8667 93.0962 30.728L96.2002 30.12L96.1842 31.32L93.9282 31.784C93.4802 31.8693 93.1442 31.992 92.9202 32.152C92.6962 32.312 92.5842 32.5467 92.5842 32.856C92.5842 33.1547 92.6962 33.3947 92.9202 33.576C93.1549 33.7467 93.4642 33.832 93.8482 33.832C94.1149 33.832 94.3709 33.8 94.6162 33.736C94.8722 33.672 95.1015 33.5707 95.3042 33.432C95.5069 33.2827 95.6615 33.096 95.7682 32.872C95.8855 32.6373 95.9442 32.36 95.9442 32.04V29.864ZM107.997 27L104.429 30.648L104.061 30.904L101.549 33.512L101.533 31.56L105.965 27H107.997ZM102.157 23.4V35H100.445V23.4H102.157ZM104.637 29.688L108.189 35H106.205L103.357 30.664L104.637 29.688ZM112.965 35.16C112.165 35.16 111.461 34.9947 110.853 34.664C110.245 34.3333 109.771 33.8587 109.429 33.24C109.099 32.6107 108.933 31.864 108.933 31C108.933 30.136 109.099 29.3947 109.429 28.776C109.771 28.1467 110.24 27.6667 110.837 27.336C111.435 27.0053 112.112 26.84 112.869 26.84C113.648 26.84 114.309 27 114.853 27.32C115.397 27.64 115.813 28.0773 116.101 28.632C116.389 29.1867 116.533 29.816 116.533 30.52C116.533 30.712 116.528 30.8933 116.517 31.064C116.507 31.2347 116.491 31.384 116.469 31.512H110.037V30.2H115.717L114.869 30.456C114.869 29.7307 114.688 29.176 114.325 28.792C113.963 28.3973 113.467 28.2 112.837 28.2C112.379 28.2 111.979 28.3067 111.637 28.52C111.296 28.7333 111.035 29.0533 110.853 29.48C110.672 29.896 110.581 30.408 110.581 31.016C110.581 31.6133 110.677 32.12 110.869 32.536C111.061 32.952 111.333 33.2667 111.685 33.48C112.037 33.6933 112.453 33.8 112.933 33.8C113.467 33.8 113.899 33.6987 114.229 33.496C114.56 33.2933 114.821 33.0107 115.013 32.648L116.373 33.288C116.181 33.672 115.92 34.008 115.589 34.296C115.269 34.5733 114.885 34.7867 114.437 34.936C113.989 35.0853 113.499 35.16 112.965 35.16ZM128.202 24.44C128.96 24.44 129.61 24.5733 130.154 24.84C130.709 25.1067 131.141 25.4853 131.45 25.976C131.76 26.4667 131.914 27.0587 131.914 27.752C131.914 28.4347 131.76 29.0267 131.45 29.528C131.141 30.0187 130.709 30.3973 130.154 30.664C129.61 30.9307 128.96 31.064 128.202 31.064H125.85V35H124.138V24.44H128.202ZM127.93 29.592C128.688 29.592 129.242 29.4373 129.594 29.128C129.957 28.808 130.138 28.3493 130.138 27.752C130.138 27.144 129.957 26.6853 129.594 26.376C129.242 26.056 128.688 25.896 127.93 25.896H125.85V29.592H127.93ZM133.93 35V23.4H135.642V28.28C135.908 27.7787 136.266 27.416 136.714 27.192C137.172 26.9573 137.679 26.84 138.234 26.84C138.799 26.84 139.306 26.952 139.754 27.176C140.212 27.3893 140.575 27.7147 140.842 28.152C141.108 28.5893 141.242 29.144 141.242 29.816V35H139.53V30.36C139.53 29.5707 139.364 29.0213 139.034 28.712C138.714 28.4027 138.308 28.248 137.818 28.248C137.476 28.248 137.135 28.3333 136.794 28.504C136.463 28.664 136.186 28.9307 135.962 29.304C135.748 29.6667 135.642 30.1573 135.642 30.776V35H133.93ZM147.308 26.84C148.086 26.84 148.774 27.0053 149.372 27.336C149.969 27.6667 150.433 28.1467 150.764 28.776C151.105 29.3947 151.276 30.136 151.276 31C151.276 31.864 151.105 32.6107 150.764 33.24C150.433 33.8587 149.969 34.3333 149.372 34.664C148.774 34.9947 148.086 35.16 147.308 35.16C146.529 35.16 145.841 34.9947 145.244 34.664C144.646 34.3333 144.177 33.8587 143.836 33.24C143.494 32.6107 143.324 31.864 143.324 31C143.324 30.136 143.494 29.3947 143.836 28.776C144.177 28.1467 144.646 27.6667 145.244 27.336C145.841 27.0053 146.529 26.84 147.308 26.84ZM147.308 28.184C146.828 28.184 146.417 28.296 146.076 28.52C145.745 28.7333 145.489 29.048 145.308 29.464C145.126 29.88 145.036 30.392 145.036 31C145.036 31.5973 145.126 32.1093 145.308 32.536C145.489 32.952 145.745 33.272 146.076 33.496C146.417 33.7093 146.828 33.816 147.308 33.816C147.788 33.816 148.193 33.7093 148.524 33.496C148.854 33.272 149.11 32.952 149.292 32.536C149.473 32.1093 149.564 31.5973 149.564 31C149.564 30.392 149.473 29.88 149.292 29.464C149.11 29.048 148.854 28.7333 148.524 28.52C148.193 28.296 147.788 28.184 147.308 28.184ZM155.656 24.648V32.6C155.656 32.9947 155.758 33.2827 155.96 33.464C156.174 33.6453 156.456 33.736 156.808 33.736C157.096 33.736 157.347 33.6933 157.56 33.608C157.774 33.512 157.971 33.384 158.152 33.224L158.536 34.472C158.291 34.6853 157.987 34.856 157.624 34.984C157.272 35.1013 156.878 35.16 156.44 35.16C155.982 35.16 155.56 35.0853 155.176 34.936C154.792 34.7867 154.494 34.5467 154.28 34.216C154.067 33.8747 153.955 33.432 153.944 32.888V25.128L155.656 24.648ZM158.408 27V28.344H152.408V27H158.408ZM163.573 26.84C164.352 26.84 165.04 27.0053 165.637 27.336C166.235 27.6667 166.699 28.1467 167.029 28.776C167.371 29.3947 167.541 30.136 167.541 31C167.541 31.864 167.371 32.6107 167.029 33.24C166.699 33.8587 166.235 34.3333 165.637 34.664C165.04 34.9947 164.352 35.16 163.573 35.16C162.795 35.16 162.107 34.9947 161.509 34.664C160.912 34.3333 160.443 33.8587 160.101 33.24C159.76 32.6107 159.589 31.864 159.589 31C159.589 30.136 159.76 29.3947 160.101 28.776C160.443 28.1467 160.912 27.6667 161.509 27.336C162.107 27.0053 162.795 26.84 163.573 26.84ZM163.573 28.184C163.093 28.184 162.683 28.296 162.341 28.52C162.011 28.7333 161.755 29.048 161.573 29.464C161.392 29.88 161.301 30.392 161.301 31C161.301 31.5973 161.392 32.1093 161.573 32.536C161.755 32.952 162.011 33.272 162.341 33.496C162.683 33.7093 163.093 33.816 163.573 33.816C164.053 33.816 164.459 33.7093 164.789 33.496C165.12 33.272 165.376 32.952 165.557 32.536C165.739 32.1093 165.829 31.5973 165.829 31C165.829 30.392 165.739 29.88 165.557 29.464C165.376 29.048 165.12 28.7333 164.789 28.52C164.459 28.296 164.053 28.184 163.573 28.184Z" fill="#7D67EE"/>
</svg>
