<svg width="227" height="59" viewBox="0 0 227 59" fill="none" xmlns="http://www.w3.org/2000/svg">
<rect width="227" height="59" rx="5" fill="#E2E6FE"/>
<path fill-rule="evenodd" clip-rule="evenodd" d="M55 24.5C54.4696 24.5 53.9609 24.7107 53.5858 25.0858C53.2107 25.4609 53 25.9696 53 26.5V34.5C53 35.0304 53.2107 35.5391 53.5858 35.9142C53.9609 36.2893 54.4696 36.5 55 36.5H67C67.5304 36.5 68.0391 36.2893 68.4142 35.9142C68.7893 35.5391 69 35.0304 69 34.5V26.5C69 25.9696 68.7893 25.4609 68.4142 25.0858C68.0391 24.7107 67.5304 24.5 67 24.5H65.414C65.1488 24.4999 64.8945 24.3945 64.707 24.207L63.586 23.086C63.211 22.7109 62.7024 22.5001 62.172 22.5H59.828C59.2976 22.5001 58.789 22.7109 58.414 23.086L57.293 24.207C57.1055 24.3945 56.8512 24.4999 56.586 24.5H55ZM61 33.5C61.5933 33.5 62.1734 33.3241 62.6667 32.9944C63.1601 32.6648 63.5446 32.1962 63.7716 31.6481C63.9987 31.0999 64.0581 30.4967 63.9424 29.9147C63.8266 29.3328 63.5409 28.7982 63.1213 28.3787C62.7018 27.9591 62.1672 27.6734 61.5853 27.5576C61.0033 27.4419 60.4001 27.5013 59.8519 27.7284C59.3038 27.9554 58.8352 28.3399 58.5056 28.8333C58.1759 29.3266 58 29.9067 58 30.5C58 31.2956 58.3161 32.0587 58.8787 32.6213C59.4413 33.1839 60.2044 33.5 61 33.5Z" fill="#7D67EE"/>
<path d="M90.5568 24.44V25.912H86.9408V35H85.2288V25.912H81.6128V24.44H90.5568ZM95.4442 29.864C95.4442 29.3307 95.2949 28.92 94.9962 28.632C94.7082 28.3333 94.3082 28.184 93.7962 28.184C93.3162 28.184 92.9055 28.296 92.5642 28.52C92.2229 28.744 91.9722 29.1067 91.8122 29.608L90.3722 29C90.5749 28.3493 90.9695 27.8267 91.5562 27.432C92.1535 27.0373 92.9215 26.84 93.8602 26.84C94.5002 26.84 95.0655 26.9467 95.5562 27.16C96.0469 27.3627 96.4309 27.672 96.7082 28.088C96.9962 28.504 97.1402 29.0373 97.1402 29.688V33.256C97.1402 33.6507 97.3375 33.848 97.7322 33.848C97.9242 33.848 98.1109 33.8213 98.2922 33.768L98.1962 34.952C97.9509 35.0693 97.6415 35.128 97.2682 35.128C96.9269 35.128 96.6175 35.0693 96.3402 34.952C96.0735 34.824 95.8602 34.6373 95.7002 34.392C95.5509 34.136 95.4762 33.8213 95.4762 33.448V33.336L95.8282 33.32C95.7322 33.736 95.5349 34.0827 95.2362 34.36C94.9375 34.6267 94.5909 34.8293 94.1962 34.968C93.8015 35.096 93.4015 35.16 92.9962 35.16C92.4949 35.16 92.0415 35.08 91.6362 34.92C91.2415 34.76 90.9269 34.52 90.6922 34.2C90.4682 33.8693 90.3562 33.464 90.3562 32.984C90.3562 32.3867 90.5482 31.896 90.9322 31.512C91.3269 31.128 91.8815 30.8667 92.5962 30.728L95.7002 30.12L95.6842 31.32L93.4282 31.784C92.9802 31.8693 92.6442 31.992 92.4202 32.152C92.1962 32.312 92.0842 32.5467 92.0842 32.856C92.0842 33.1547 92.1962 33.3947 92.4202 33.576C92.6549 33.7467 92.9642 33.832 93.3482 33.832C93.6149 33.832 93.8709 33.8 94.1162 33.736C94.3722 33.672 94.6015 33.5707 94.8042 33.432C95.0069 33.2827 95.1615 33.096 95.2682 32.872C95.3855 32.6373 95.4442 32.36 95.4442 32.04V29.864ZM107.497 27L103.929 30.648L103.561 30.904L101.049 33.512L101.033 31.56L105.465 27H107.497ZM101.657 23.4V35H99.9452V23.4H101.657ZM104.137 29.688L107.689 35H105.705L102.857 30.664L104.137 29.688ZM112.465 35.16C111.665 35.16 110.961 34.9947 110.353 34.664C109.745 34.3333 109.271 33.8587 108.929 33.24C108.599 32.6107 108.433 31.864 108.433 31C108.433 30.136 108.599 29.3947 108.929 28.776C109.271 28.1467 109.74 27.6667 110.337 27.336C110.935 27.0053 111.612 26.84 112.369 26.84C113.148 26.84 113.809 27 114.353 27.32C114.897 27.64 115.313 28.0773 115.601 28.632C115.889 29.1867 116.033 29.816 116.033 30.52C116.033 30.712 116.028 30.8933 116.017 31.064C116.007 31.2347 115.991 31.384 115.969 31.512H109.537V30.2H115.217L114.369 30.456C114.369 29.7307 114.188 29.176 113.825 28.792C113.463 28.3973 112.967 28.2 112.337 28.2C111.879 28.2 111.479 28.3067 111.137 28.52C110.796 28.7333 110.535 29.0533 110.353 29.48C110.172 29.896 110.081 30.408 110.081 31.016C110.081 31.6133 110.177 32.12 110.369 32.536C110.561 32.952 110.833 33.2667 111.185 33.48C111.537 33.6933 111.953 33.8 112.433 33.8C112.967 33.8 113.399 33.6987 113.729 33.496C114.06 33.2933 114.321 33.0107 114.513 32.648L115.873 33.288C115.681 33.672 115.42 34.008 115.089 34.296C114.769 34.5733 114.385 34.7867 113.937 34.936C113.489 35.0853 112.999 35.16 112.465 35.16ZM127.702 24.44C128.46 24.44 129.11 24.5733 129.654 24.84C130.209 25.1067 130.641 25.4853 130.95 25.976C131.26 26.4667 131.414 27.0587 131.414 27.752C131.414 28.4347 131.26 29.0267 130.95 29.528C130.641 30.0187 130.209 30.3973 129.654 30.664C129.11 30.9307 128.46 31.064 127.702 31.064H125.35V35H123.638V24.44H127.702ZM127.43 29.592C128.188 29.592 128.742 29.4373 129.094 29.128C129.457 28.808 129.638 28.3493 129.638 27.752C129.638 27.144 129.457 26.6853 129.094 26.376C128.742 26.056 128.188 25.896 127.43 25.896H125.35V29.592H127.43ZM133.43 35V23.4H135.142V28.28C135.408 27.7787 135.766 27.416 136.214 27.192C136.672 26.9573 137.179 26.84 137.734 26.84C138.299 26.84 138.806 26.952 139.254 27.176C139.712 27.3893 140.075 27.7147 140.342 28.152C140.608 28.5893 140.742 29.144 140.742 29.816V35H139.03V30.36C139.03 29.5707 138.864 29.0213 138.534 28.712C138.214 28.4027 137.808 28.248 137.318 28.248C136.976 28.248 136.635 28.3333 136.294 28.504C135.963 28.664 135.686 28.9307 135.462 29.304C135.248 29.6667 135.142 30.1573 135.142 30.776V35H133.43ZM146.808 26.84C147.586 26.84 148.274 27.0053 148.872 27.336C149.469 27.6667 149.933 28.1467 150.264 28.776C150.605 29.3947 150.776 30.136 150.776 31C150.776 31.864 150.605 32.6107 150.264 33.24C149.933 33.8587 149.469 34.3333 148.872 34.664C148.274 34.9947 147.586 35.16 146.808 35.16C146.029 35.16 145.341 34.9947 144.744 34.664C144.146 34.3333 143.677 33.8587 143.336 33.24C142.994 32.6107 142.824 31.864 142.824 31C142.824 30.136 142.994 29.3947 143.336 28.776C143.677 28.1467 144.146 27.6667 144.744 27.336C145.341 27.0053 146.029 26.84 146.808 26.84ZM146.808 28.184C146.328 28.184 145.917 28.296 145.576 28.52C145.245 28.7333 144.989 29.048 144.808 29.464C144.626 29.88 144.536 30.392 144.536 31C144.536 31.5973 144.626 32.1093 144.808 32.536C144.989 32.952 145.245 33.272 145.576 33.496C145.917 33.7093 146.328 33.816 146.808 33.816C147.288 33.816 147.693 33.7093 148.024 33.496C148.354 33.272 148.61 32.952 148.792 32.536C148.973 32.1093 149.064 31.5973 149.064 31C149.064 30.392 148.973 29.88 148.792 29.464C148.61 29.048 148.354 28.7333 148.024 28.52C147.693 28.296 147.288 28.184 146.808 28.184ZM155.156 24.648V32.6C155.156 32.9947 155.258 33.2827 155.46 33.464C155.674 33.6453 155.956 33.736 156.308 33.736C156.596 33.736 156.847 33.6933 157.06 33.608C157.274 33.512 157.471 33.384 157.652 33.224L158.036 34.472C157.791 34.6853 157.487 34.856 157.124 34.984C156.772 35.1013 156.378 35.16 155.94 35.16C155.482 35.16 155.06 35.0853 154.676 34.936C154.292 34.7867 153.994 34.5467 153.78 34.216C153.567 33.8747 153.455 33.432 153.444 32.888V25.128L155.156 24.648ZM157.908 27V28.344H151.908V27H157.908ZM163.073 26.84C163.852 26.84 164.54 27.0053 165.137 27.336C165.735 27.6667 166.199 28.1467 166.529 28.776C166.871 29.3947 167.041 30.136 167.041 31C167.041 31.864 166.871 32.6107 166.529 33.24C166.199 33.8587 165.735 34.3333 165.137 34.664C164.54 34.9947 163.852 35.16 163.073 35.16C162.295 35.16 161.607 34.9947 161.009 34.664C160.412 34.3333 159.943 33.8587 159.601 33.24C159.26 32.6107 159.089 31.864 159.089 31C159.089 30.136 159.26 29.3947 159.601 28.776C159.943 28.1467 160.412 27.6667 161.009 27.336C161.607 27.0053 162.295 26.84 163.073 26.84ZM163.073 28.184C162.593 28.184 162.183 28.296 161.841 28.52C161.511 28.7333 161.255 29.048 161.073 29.464C160.892 29.88 160.801 30.392 160.801 31C160.801 31.5973 160.892 32.1093 161.073 32.536C161.255 32.952 161.511 33.272 161.841 33.496C162.183 33.7093 162.593 33.816 163.073 33.816C163.553 33.816 163.959 33.7093 164.289 33.496C164.62 33.272 164.876 32.952 165.057 32.536C165.239 32.1093 165.329 31.5973 165.329 31C165.329 30.392 165.239 29.88 165.057 29.464C164.876 29.048 164.62 28.7333 164.289 28.52C163.959 28.296 163.553 28.184 163.073 28.184Z" fill="#7D67EE"/>
</svg>
